<svg width="249" height="59" viewBox="0 0 249 59" fill="none" xmlns="http://www.w3.org/2000/svg">
<mask id="mask0_1001_2981" style="mask-type:alpha" maskUnits="userSpaceOnUse" x="0" y="0" width="206" height="59">
<rect width="206" height="59" fill="#D9D9D9"/>
</mask>
<g mask="url(#mask0_1001_2981)">
<path d="M4.74557 27.2044C5.55576 27.6497 6.5759 27.8724 7.80546 27.8724H13.6947C14.91 27.8724 15.9333 27.6497 16.7646 27.2044C17.596 26.7596 18.2142 26.1729 18.6193 25.4442C19.0244 24.7155 19.2269 23.9193 19.2269 23.0563V12.4525L18.1375 12.3309C17.2289 12.2365 16.2019 12.189 15.0564 12.189C13.6175 12.189 12.5069 12.3309 11.7247 12.6143C10.942 12.8973 10.3725 13.4207 10.0166 14.1826C9.66012 14.945 9.4819 16.0613 9.4819 17.5315C9.4819 18.9077 9.62892 19.9331 9.92242 20.6077C10.2154 21.2823 10.6628 21.7306 11.2636 21.9533C11.8643 22.1759 12.7163 22.2873 13.82 22.2873H16.4188V22.7729C16.4188 23.5282 16.2056 24.1558 15.7794 24.6547C15.3537 25.1536 14.6582 25.4038 13.6947 25.4038H7.80546C6.8271 25.4038 6.1322 25.1536 5.72023 24.6547C5.30826 24.1558 5.10201 23.5149 5.10201 22.7326C5.10201 22.2873 5.15436 21.6939 5.25907 20.9519C5.36379 20.2099 5.51398 19.2453 5.71018 18.0575L5.85667 17.1066L3.23677 16.6818C2.66403 19.785 2.37793 21.8961 2.37793 23.0155C2.37793 23.8923 2.56937 24.6986 2.95384 25.434C3.33831 26.1688 3.93538 26.7596 4.74557 27.2044ZM14.5117 19.8182C13.911 19.8182 13.4641 19.7779 13.1706 19.6972C12.8771 19.616 12.6571 19.4107 12.5106 19.0798C12.3636 18.7494 12.2901 18.2199 12.2901 17.4911C12.2901 16.7088 12.381 16.1149 12.5629 15.7105C12.7443 15.3055 13.0341 15.0293 13.4324 14.8807C13.8306 14.7321 14.3996 14.658 15.1405 14.658C15.5737 14.658 15.9999 14.6718 16.4188 14.6983V19.8182H14.5117Z" fill="#76777A"/>
<path d="M14.8887 7.75781H12.7305V10.2871H14.8887V7.75781Z" fill="#76777A"/>
<path d="M18.0742 7.75781H15.916V10.2871H18.0742V7.75781Z" fill="#76777A"/>
<path d="M59.82 8.12158H57.0119V19.8182H54.4343H52.2332V8.12158H49.4251V19.8182H46.848H45.0875V17.2078C45.0875 15.805 44.7205 14.5804 43.9875 13.5351C43.254 12.4898 42.007 11.9669 40.2464 11.9669C39.3522 11.9669 38.5626 12.1149 37.8783 12.4116C37.1934 12.7088 36.5964 13.0934 36.0865 13.5652C35.5762 14.0376 35.0072 14.6514 34.3784 15.4067V8.12158H31.5702V19.8182H29.8097H26.3521V12.1691H23.5439V22.631C23.5439 23.3326 23.4181 23.876 23.1663 24.26C22.9151 24.645 22.5375 24.837 22.0351 24.837L21.3223 24.7967V27.2249C22.161 27.2785 22.6703 27.3061 22.8522 27.3061C24.0114 27.3061 24.8814 26.8674 25.4615 25.9906C26.0406 25.1133 26.3378 23.879 26.3521 22.2873H29.8097H46.8475H54.4343H59.82V8.12158ZM42.2793 19.8182H34.3784V19.6365C34.3784 19.3934 34.6301 18.8301 35.133 17.9467C35.636 17.0627 36.2785 16.2569 37.0607 15.5282C37.8434 14.7995 38.6959 14.4354 39.6176 14.4354C40.4559 14.4354 41.109 14.7525 41.577 15.3867C42.045 16.021 42.2793 16.8033 42.2793 17.7342V19.8182Z" fill="#76777A"/>
<path d="M72.3945 7.75781H70.2363V10.2871H72.3945V7.75781Z" fill="#76777A"/>
<path d="M69.2929 21.8624C70.0888 22.1458 71.1787 22.2872 72.5622 22.2872H79.9596H93.1416V17.2281C93.1416 16.0276 93.0057 15.0563 92.7328 14.3143C92.4605 13.5723 91.9369 12.9988 91.1611 12.5939C90.3858 12.1894 89.2784 11.9867 87.8394 11.9867C86.9314 11.9867 86.1069 12.0546 85.3666 12.1894C84.6262 12.3243 84.0672 12.4795 83.6901 12.6547C83.4944 13.2756 83.3199 14.0105 83.166 14.8607C83.0127 15.7104 82.9355 16.5066 82.9355 17.2486C82.9355 17.9905 83.0333 18.8474 83.229 19.8182H79.9596H77.7803V12.2298C77.3329 12.1624 76.565 12.1016 75.475 12.0475C74.3851 11.9939 73.449 11.9668 72.6669 11.9668C71.1999 11.9668 70.0607 12.1118 69.2505 12.4019C68.4404 12.6919 67.8533 13.198 67.4906 13.9196C67.1272 14.6416 66.9453 15.6834 66.9453 17.0458C66.9453 18.4762 67.1373 19.5654 67.5218 20.3146C67.9057 21.0632 68.4964 21.579 69.2929 21.8624ZM85.9536 14.5773C86.4845 14.4695 87.015 14.4154 87.5459 14.4154C88.6359 14.4154 89.3725 14.6381 89.757 15.0834C90.1415 15.5287 90.3335 16.2231 90.3335 17.1674V19.8182H85.9536C85.8832 19.522 85.8171 19.1339 85.7542 18.6549C85.6913 18.1759 85.6601 17.7071 85.6601 17.2486C85.6601 16.4795 85.7579 15.5894 85.9536 14.5773ZM70.047 15.4372C70.2427 15.0665 70.5536 14.8066 70.9799 14.658C71.4056 14.5099 72.0032 14.4358 72.7716 14.4358C73.54 14.4358 74.2735 14.4695 74.9721 14.5369V19.8182H72.7087C71.982 19.8182 71.4093 19.7441 70.9904 19.5961C70.5711 19.4475 70.2601 19.1743 70.0576 18.7764C69.855 18.3786 69.754 17.8016 69.754 17.0458C69.754 16.3447 69.8513 15.8085 70.047 15.4372Z" fill="#76777A"/>
<path d="M75.5796 7.75781H73.4209V10.2871H75.5796V7.75781Z" fill="#76777A"/>
<path d="M120.07 8.12158H117.262V19.8182H114.685H114.684H111.918C111.471 19.8182 110.989 19.7646 110.472 19.6564C111.464 18.7796 112.215 18.0172 112.725 17.3696C113.235 16.7221 113.49 16.0276 113.49 15.2851L113.574 13.5044C112.889 13.0995 112.006 12.7354 110.922 12.4116C109.84 12.0879 108.789 11.926 107.768 11.926C106.735 11.926 105.687 12.0879 104.625 12.4116C103.564 12.7354 102.704 13.0995 102.047 13.5044L102.11 15.2851C102.11 16.0138 102.365 16.7088 102.876 17.3696C103.385 18.0309 104.136 18.7928 105.128 19.6564C104.611 19.7646 104.136 19.8182 103.703 19.8182H100.727H98.6734V8.12158H95.8652V22.2873H100.727H103.766C104.409 22.2873 105.083 22.2097 105.788 22.0544C106.494 21.8992 107.161 21.6873 107.79 21.4166C108.418 21.6873 109.092 21.8992 109.812 22.0544C110.532 22.2097 111.24 22.2873 111.939 22.2873H114.684H114.685H120.07V8.12158ZM107.811 18.6039C106.833 18.0509 106.093 17.437 105.589 16.7625C105.086 16.0879 104.835 15.4674 104.835 14.9006C105.841 14.5636 106.826 14.3945 107.79 14.3945C108.768 14.3945 109.773 14.5636 110.808 14.9006C110.808 15.4542 110.567 16.0542 110.084 16.7017C109.602 17.3492 108.845 17.9834 107.811 18.6039Z" fill="#76777A"/>
<path d="M126.232 8.12158H123.424V22.2873H126.232V8.12158Z" fill="#76777A"/>
<path d="M139.015 7.75781H136.856V10.2871H139.015V7.75781Z" fill="#76777A"/>
<path d="M135.913 21.8624C136.71 22.1458 137.8 22.2873 139.183 22.2873H146.581H155.655H164.73H182.25H187.635V8.12158H184.827V19.8182H182.25H180.384V17.8961C180.384 16.4525 180.104 15.1815 179.546 14.0815C178.987 12.982 178.166 12.1257 177.083 11.5113C176 10.8975 174.697 10.5906 173.175 10.5906C172.323 10.5906 171.421 10.6718 170.471 10.8337C169.521 10.9956 168.515 11.2049 167.454 11.4608L167.684 13.626C168.886 13.4376 169.854 13.2925 170.587 13.1914C171.32 13.0898 171.973 13.0392 172.546 13.0392C173.846 13.0392 175.009 13.3901 176.036 14.0917C177.062 14.7934 177.576 16.0613 177.576 17.8961V19.8182H175.606V19.4138C175.606 18.7127 175.421 18.0376 175.051 17.3901C174.68 16.7425 174.167 16.2201 173.511 15.8218C172.853 15.424 172.113 15.2249 171.289 15.2249C170.464 15.2249 169.717 15.424 169.047 15.8218C168.376 16.2201 167.855 16.7425 167.485 17.3901C167.115 18.0376 166.93 18.7193 166.93 19.4342V19.8182H164.73H161.586V12.1691H158.777V19.8182H155.655H152.511V12.1691H149.703V19.8182H146.581H144.401V12.2298C143.954 12.1624 143.186 12.1017 142.096 12.0475C141.006 11.9939 140.07 11.9669 139.288 11.9669C137.82 11.9669 136.682 12.1119 135.872 12.4019C135.061 12.692 134.474 13.1981 134.111 13.9196C133.748 14.6417 133.566 15.6834 133.566 17.0459C133.566 18.4762 133.758 19.5655 134.143 20.3146C134.527 21.0632 135.117 21.579 135.913 21.8624ZM169.759 19.3939C169.759 18.9215 169.902 18.5202 170.188 18.1892C170.474 17.8594 170.835 17.6939 171.268 17.6939C171.701 17.6939 172.064 17.8558 172.358 18.1795C172.651 18.5033 172.798 18.9011 172.798 19.3735V19.8182H169.759V19.3939ZM136.668 15.4373C136.864 15.0666 137.174 14.8066 137.6 14.658C138.027 14.5099 138.624 14.4359 139.393 14.4359C140.161 14.4359 140.894 14.4696 141.593 14.537V19.8182H139.33C138.603 19.8182 138.03 19.7442 137.611 19.5961C137.192 19.4475 136.881 19.1743 136.679 18.7765C136.476 18.3787 136.375 17.8017 136.375 17.0459C136.375 16.3447 136.472 15.8085 136.668 15.4373Z" fill="#76777A"/>
<path d="M142.2 7.75781H140.041V10.2871H142.2V7.75781Z" fill="#76777A"/>
<path d="M148.802 9.84214L153.392 8.97197L153.099 7.73771L150.815 8.32445C150.479 8.09517 150.311 7.79184 150.311 7.41395C150.311 7.13053 150.413 6.88746 150.615 6.68524C150.818 6.48301 151.08 6.3819 151.401 6.3819C151.597 6.3819 151.771 6.41203 151.925 6.4728C152.079 6.53357 152.197 6.59791 152.282 6.66481L152.554 5.45097C152.009 5.12721 151.464 4.96533 150.919 4.96533C150.276 4.96533 149.749 5.16755 149.337 5.572C148.924 5.97695 148.719 6.45595 148.719 7.00899C148.719 7.65651 148.991 8.20292 149.536 8.64821L148.572 8.89078L148.802 9.84214Z" fill="#76777A"/>
<path d="M162.823 23.9062H160.664V26.4355H162.823V23.9062Z" fill="#76777A"/>
<path d="M159.636 23.9062H157.478V26.4355H159.636V23.9062Z" fill="#76777A"/>
<path d="M193.796 8.12158H190.988V22.2873H193.796V8.12158Z" fill="#76777A"/>
<path d="M11.6551 36.4165C11.6551 35.0408 11.2685 33.9935 10.5065 33.3041C9.75022 32.6182 8.61003 32.271 7.11763 32.271H2V45.2663H4.36764V40.6714H7.19378L9.2732 45.2663H11.8656L9.51753 40.1745C10.9364 39.5142 11.6551 38.2513 11.6551 36.4165ZM8.71844 38.0823C8.3657 38.4444 7.84849 38.62 7.1372 38.62H4.36764V34.3218H7.11763C7.83263 34.3218 8.37152 34.5 8.72003 34.8519C9.07171 35.2073 9.24993 35.746 9.24993 36.4528C9.24993 37.1728 9.07118 37.7208 8.71844 38.0823Z" fill="#76777A"/>
<path d="M17.1211 35.4717C15.6028 35.4717 14.4769 35.8894 13.7741 36.7116C13.0845 37.5174 12.7344 38.7935 12.7344 40.5047C12.7344 42.1782 13.0776 43.4329 13.7535 44.2331C14.4447 45.0501 15.5774 45.4643 17.1211 45.4643C18.6654 45.4643 19.7992 45.0466 20.4904 44.2229C21.1663 43.416 21.5084 42.1654 21.5084 40.5047C21.5084 38.8078 21.1626 37.5353 20.4798 36.7223C19.7828 35.8925 18.6527 35.4717 17.1211 35.4717ZM18.9462 42.3452C18.8267 42.7414 18.6363 43.0167 18.3639 43.1852C18.081 43.3609 17.6627 43.4492 17.1211 43.4492C16.5791 43.4492 16.1581 43.3604 15.8678 43.1837C15.5896 43.0146 15.3971 42.7384 15.2781 42.338C15.1491 41.9004 15.0835 41.284 15.0835 40.5047C15.0835 39.6902 15.1523 39.0494 15.2882 38.6C15.4093 38.194 15.6097 37.907 15.8831 37.7451C16.1745 37.5741 16.5912 37.4873 17.1211 37.4873C17.651 37.4873 18.0635 37.5736 18.3475 37.7436C18.6162 37.906 18.815 38.1915 18.9372 38.5918C19.072 39.0361 19.1403 39.68 19.1403 40.5047C19.1403 41.2952 19.0752 41.9152 18.9462 42.3452Z" fill="#76777A"/>
<path d="M30.585 43.4221C30.494 43.3414 30.4411 43.2194 30.4253 43.0728V38.7138C30.4253 37.618 30.1444 36.7948 29.5907 36.2657C29.0386 35.7387 28.1639 35.4722 26.9925 35.4722C25.8402 35.4722 24.5768 35.6269 23.2372 35.9318L23.0077 35.9838L23.0875 37.7344L23.3895 37.7027C24.7471 37.5597 25.9597 37.4872 26.9925 37.4872C27.3733 37.4872 27.6573 37.5776 27.8376 37.7569C28.0206 37.9376 28.1132 38.2599 28.1132 38.7138V39.1688L25.7106 39.3808C24.6 39.4844 23.8057 39.7592 23.28 40.2198C22.7454 40.687 22.4746 41.4157 22.4746 42.386C22.4746 43.3583 22.7332 44.1207 23.243 44.6533C23.7581 45.1921 24.5091 45.4648 25.4753 45.4648C26.5187 45.4648 27.5743 45.2426 28.6161 44.804C28.898 45.0133 29.2174 45.1732 29.5675 45.2799C29.9683 45.4025 30.4575 45.4648 31.0207 45.4648H31.2942L31.3719 43.654L31.1212 43.6157C30.8044 43.5672 30.6542 43.4834 30.585 43.4221ZM28.1132 43.1101L27.9143 43.1739C27.2353 43.393 26.5219 43.5038 25.7936 43.5038C25.342 43.5038 24.8237 43.3705 24.8237 42.3314C24.8237 41.9478 24.9142 41.6624 25.0924 41.4806C25.2733 41.2962 25.5758 41.1813 25.9888 41.14L28.1132 40.9505V43.1101Z" fill="#76777A"/>
<path d="M38.211 35.6628C35.8122 35.218 34.0316 35.5622 33.0833 36.7255C32.4117 37.5487 32.0859 38.8202 32.0859 40.6132C32.0859 42.2289 32.3588 43.406 32.9205 44.2128C33.499 45.0431 34.4541 45.4644 35.7609 45.4644C36.5293 45.4644 37.3516 45.2714 38.211 44.8904V45.2658H40.5231V31.8359H38.211V35.6628ZM38.211 42.9397L38.055 42.9985C37.7827 43.1006 37.4558 43.1945 37.0851 43.2752C35.9306 43.5275 35.2093 43.3845 34.8571 42.7758C34.5895 42.3131 34.453 41.5548 34.453 40.5228C34.453 39.3891 34.6138 38.5823 34.9306 38.1247C35.2257 37.6952 35.7429 37.4869 36.5102 37.4869C36.9841 37.4869 37.5552 37.5446 38.211 37.6575V42.9397Z" fill="#76777A"/>
<path d="M48.3978 39.8998C47.9626 39.7175 47.3592 39.5566 46.6051 39.4208C46.3369 39.3712 46.1577 39.3406 46.0783 39.3294C45.6156 39.2476 45.2565 39.171 45.0106 39.1006C44.8001 39.0413 44.6293 38.952 44.5008 38.832C44.3956 38.7349 44.3448 38.5899 44.3448 38.3887C44.3448 38.1788 44.3448 37.542 45.9705 37.542C46.7018 37.542 47.7722 37.6386 49.1525 37.829L49.4688 37.8724L49.5211 35.9222L48.7342 35.7655C47.6004 35.5826 46.6389 35.4907 45.8768 35.4907C42.7001 35.4907 42.0332 37.1652 42.0332 38.5695C42.0332 39.1894 42.1622 39.6909 42.4182 40.0606C42.6752 40.4314 43.0422 40.7153 43.5097 40.9032C43.9466 41.0799 44.5389 41.2259 45.2687 41.3368L45.7214 41.4093C46.1894 41.4792 46.5538 41.5523 46.8039 41.6263C47.0239 41.6927 47.1974 41.7887 47.3338 41.9199C47.448 42.0307 47.5036 42.2003 47.5036 42.4403C47.5036 42.7778 47.3872 43.0015 47.1371 43.1445C46.8462 43.311 46.3904 43.3957 45.7832 43.3957C45.1518 43.3957 44.0751 43.2931 42.5821 43.0909L42.2738 43.049L42.1707 45.0411L42.9825 45.1718C44.1544 45.3659 45.1222 45.4649 45.8583 45.4649C47.1672 45.4649 48.1604 45.2101 48.8093 44.7081C49.4767 44.1908 49.8152 43.3789 49.8152 42.2958C49.8152 41.6692 49.6977 41.1596 49.4661 40.7812C49.2292 40.3941 48.8701 40.0974 48.3978 39.8998Z" fill="#76777A"/>
<path d="M58.7071 34.6414C59.154 34.333 59.8425 34.1767 60.7521 34.1767C61.8093 34.1767 63.1124 34.2855 64.6254 34.5L64.9353 34.5439L65.0395 32.6121L64.1389 32.4379C62.8019 32.1944 61.5486 32.0713 60.4147 32.0713C59.1286 32.0713 58.0847 32.3144 57.3104 32.7934C56.5277 33.278 55.9561 34.0225 55.6112 35.0076C55.2781 35.962 55.1094 37.2213 55.1094 38.7507C55.1094 40.2807 55.2749 41.5415 55.6012 42.499C55.9386 43.4907 56.514 44.2424 57.311 44.7341C58.0963 45.2187 59.1598 45.4649 60.4708 45.4649C61.6824 45.4649 63.1367 45.3173 64.793 45.0267L65.0268 44.9854V38.2579H60.8235V40.3455H62.6782V43.2389C62.0579 43.3303 61.3735 43.3773 60.6395 43.3773C59.8134 43.3773 59.1735 43.2343 58.7372 42.9529C58.3105 42.6787 58.0064 42.2299 57.8319 41.6165C57.6468 40.9649 57.5526 40.0427 57.5526 38.8769C57.5526 37.6605 57.6378 36.7055 57.8065 36.0386C57.9662 35.4064 58.2608 34.9494 58.7071 34.6414Z" fill="#76777A"/>
<path d="M70.7921 35.4722C69.3331 35.4722 68.2331 35.919 67.5234 36.7999C66.8311 37.6583 66.4805 38.9717 66.4805 40.7034C66.4805 42.3176 66.8105 43.5237 67.462 44.2877L67.4625 44.2882C68.1289 45.069 69.2363 45.4648 70.7551 45.4648C71.6647 45.4648 72.8721 45.3417 74.3433 45.0986L74.5871 45.0588L74.5337 43.2199L73.7061 43.3062C73.32 43.3419 72.8842 43.369 72.4109 43.3864C71.1465 43.4323 70.2146 43.4293 69.6911 43.2025C69.3918 43.0728 69.1818 42.8675 69.048 42.5734C68.9253 42.3028 68.8486 41.9259 68.8206 41.4489H74.7627L74.8986 39.9435C74.8986 36.9766 73.5167 35.4722 70.7921 35.4722ZM68.801 39.5784C68.8418 38.8487 69.0057 38.3099 69.2897 37.9744C69.5975 37.6103 70.0893 37.4331 70.7921 37.4331C71.4527 37.4331 71.9022 37.5986 72.1661 37.9381C72.4162 38.2609 72.5564 38.8119 72.5828 39.5784H68.801Z" fill="#76777A"/>
<path d="M83.2811 35.9731C82.784 35.6407 82.106 35.4722 81.2646 35.4722C80.7537 35.4722 80.2614 35.5365 79.7992 35.6637C79.4628 35.7561 79.0947 35.8986 78.7013 36.087V35.6713H76.4082V45.2661H78.7203V38.0015L78.8589 37.9381C79.5464 37.6752 80.2106 37.5419 80.8336 37.5419C81.2551 37.5419 81.5718 37.6169 81.7754 37.7655C81.9748 37.9121 82.116 38.1623 82.1943 38.5101C82.2831 38.9053 82.3281 39.4788 82.3281 40.2152V45.2661H84.6402V40.1789C84.6402 39.0713 84.5418 38.1787 84.3477 37.5255C84.1431 36.8336 83.7845 36.3107 83.2811 35.9731Z" fill="#76777A"/>
<path d="M90.444 35.4722C88.9844 35.4722 87.885 35.919 87.1753 36.7999C86.483 37.6583 86.1318 38.9722 86.1318 40.7034C86.1318 42.3176 86.4624 43.5232 87.1139 44.2877L87.1144 44.2882C87.7808 45.069 88.8882 45.4648 90.4065 45.4648C91.3166 45.4648 92.524 45.3417 93.9952 45.0986L94.2385 45.0588L94.1856 43.2199L93.358 43.3062C92.9719 43.3419 92.5361 43.369 92.0628 43.3864C90.7984 43.4323 89.8665 43.4293 89.343 43.2025C89.0442 43.0728 88.8337 42.8675 88.6999 42.5734C88.5772 42.3028 88.5005 41.9254 88.4725 41.4489H94.4146L94.5505 39.9435C94.5505 36.9766 93.1686 35.4722 90.444 35.4722ZM88.4529 39.5784C88.4937 38.8487 88.6576 38.3099 88.9416 37.9744C89.2494 37.6103 89.7412 37.4331 90.444 37.4331C91.1046 37.4331 91.5541 37.5986 91.818 37.9381C92.0681 38.2609 92.2077 38.8119 92.2342 39.5784H88.4529Z" fill="#76777A"/>
<path d="M98.3536 36.5958V35.6715H96.0605V45.2663H98.3727V38.7094L98.6577 38.5833C98.993 38.4331 99.424 38.2723 99.9391 38.1063C100.448 37.9424 100.948 37.8111 101.424 37.7172L101.651 37.6717V35.4131L101.311 35.4774C100.337 35.6618 99.3447 36.0371 98.3536 36.5958Z" fill="#76777A"/>
<path d="M110.203 43.4221C110.112 43.3414 110.059 43.2194 110.043 43.0728V38.7138C110.043 37.6185 109.763 36.7948 109.209 36.2652C108.656 35.7387 107.782 35.4722 106.61 35.4722C105.458 35.4722 104.194 35.6269 102.855 35.9318L102.625 35.9838L102.705 37.7344L103.007 37.7027C104.365 37.5597 105.577 37.4872 106.61 37.4872C106.991 37.4872 107.275 37.5776 107.455 37.7569C107.638 37.9376 107.731 38.2599 107.731 38.7138V39.1688L105.328 39.3808C104.218 39.4844 103.423 39.7592 102.898 40.2193C102.364 40.6865 102.093 41.4157 102.093 42.386C102.093 43.3583 102.351 44.1207 102.861 44.6533C103.376 45.191 104.127 45.4648 105.093 45.4648C106.136 45.4648 107.192 45.2426 108.234 44.804C108.516 45.0133 108.835 45.1732 109.185 45.2799C109.586 45.4025 110.075 45.4648 110.639 45.4648H110.912L110.99 43.654L110.739 43.6157C110.422 43.5672 110.272 43.4839 110.203 43.4221ZM107.731 43.1101L107.532 43.1739C106.853 43.393 106.139 43.5038 105.411 43.5038C104.96 43.5038 104.441 43.3705 104.441 42.3314C104.441 41.9478 104.531 41.6624 104.71 41.4806C104.891 41.2962 105.194 41.1813 105.606 41.14L107.731 40.9505V43.1101Z" fill="#76777A"/>
<path d="M114.558 31.8359H112.246V45.2658H114.558V31.8359Z" fill="#76777A"/>
<path d="M123.324 32.2705L119.842 45.2658H122.209L123.014 42.3535H127.785L128.59 45.2658H130.956L127.475 32.2705H123.324ZM123.537 40.2659L125.133 34.2851H125.665L127.261 40.2659H123.537Z" fill="#76777A"/>
<path d="M137.761 42.9284C137.412 43.0693 137.083 43.1807 136.781 43.2598C136.439 43.3497 136.07 43.3951 135.686 43.3951C135.249 43.3951 134.93 43.3272 134.737 43.1929C134.555 43.0668 134.426 42.8288 134.353 42.4846C134.271 42.0899 134.229 41.4781 134.229 40.6667V35.6709H131.916V40.6667C131.916 41.8182 132.008 42.74 132.187 43.4054C132.379 44.1126 132.726 44.6396 133.218 44.9721C133.702 45.2984 134.387 45.4643 135.255 45.4643C135.777 45.4643 136.267 45.4 136.713 45.2728C137.033 45.1799 137.384 45.04 137.761 44.8546V45.2657H140.073V35.6709H137.761V42.9284Z" fill="#76777A"/>
<path d="M145.726 43.4135C145.445 43.4135 145.241 43.3619 145.136 43.2633C145.021 43.1571 144.946 42.9906 144.911 42.7706C144.87 42.5019 144.849 42.0863 144.849 41.5353V37.668H147.602V35.6714H144.849V32.9756H142.537V35.6714H141.282V37.668H142.537V41.8432C142.537 42.7374 142.621 43.4222 142.795 43.9359C142.978 44.4823 143.289 44.8806 143.719 45.1201L143.72 45.1206C144.136 45.3519 144.689 45.4643 145.407 45.4643C145.897 45.4643 146.594 45.3902 147.479 45.2437L147.735 45.2013L147.579 43.3073L145.726 43.4135Z" fill="#76777A"/>
<path d="M155.609 35.9636C155.113 35.6378 154.429 35.4723 153.575 35.4723C153.091 35.4723 152.614 35.5295 152.156 35.6434C151.818 35.7271 151.446 35.8507 151.05 36.0121V31.8364H148.738V45.2658H151.05V37.9133L151.177 37.8699C151.83 37.6528 152.467 37.542 153.07 37.542C153.52 37.542 153.859 37.6166 154.078 37.7637C154.285 37.9036 154.433 38.1467 154.516 38.4873C154.61 38.8754 154.658 39.457 154.658 40.2153V45.2658H156.97V40.1791C156.97 39.0725 156.872 38.1773 156.678 37.518C156.473 36.8174 156.113 36.2945 155.609 35.9636Z" fill="#76777A"/>
<path d="M162.848 35.4717C161.329 35.4717 160.203 35.8894 159.501 36.7116C158.811 37.5174 158.461 38.7935 158.461 40.5047C158.461 42.1782 158.804 43.4329 159.48 44.2331C160.171 45.0501 161.304 45.4643 162.848 45.4643C164.392 45.4643 165.526 45.0466 166.217 44.2229C166.892 43.4165 167.235 42.1654 167.235 40.5047C167.235 38.8078 166.889 37.5353 166.206 36.7223C165.509 35.8925 164.379 35.4717 162.848 35.4717ZM164.673 42.3452C164.554 42.7414 164.363 43.0162 164.09 43.1852C163.807 43.3609 163.389 43.4492 162.848 43.4492C162.306 43.4492 161.884 43.3604 161.595 43.1837C161.316 43.0146 161.124 42.7384 161.005 42.338C160.875 41.8994 160.81 41.283 160.81 40.5047C160.81 39.6908 160.878 39.0499 161.015 38.6C161.136 38.194 161.336 37.907 161.61 37.7451C161.901 37.5741 162.318 37.4873 162.848 37.4873C163.378 37.4873 163.79 37.5736 164.074 37.7436C164.343 37.906 164.541 38.1915 164.664 38.5918C164.799 39.0361 164.867 39.68 164.867 40.5047C164.867 41.2952 164.802 41.9152 164.673 42.3452Z" fill="#76777A"/>
<path d="M171.094 36.5958V35.6715H168.801V45.2663H171.113V38.7094L171.398 38.5833C171.733 38.4331 172.164 38.2723 172.679 38.1063C173.189 37.9424 173.688 37.8111 174.164 37.7172L174.391 37.6717V35.4131L174.052 35.4774C173.078 35.6618 172.085 36.0371 171.094 36.5958Z" fill="#76777A"/>
<path d="M177.727 32.0713H175.434V34.4484H177.727V32.0713Z" fill="#76777A"/>
<path d="M177.745 35.6709H175.433V45.2657H177.745V35.6709Z" fill="#76777A"/>
<path d="M183.137 43.4135C182.856 43.4135 182.652 43.3619 182.547 43.2633C182.433 43.1571 182.357 42.9912 182.322 42.7706C182.281 42.5019 182.26 42.0863 182.26 41.5353V37.668H185.014V35.6714H182.26V32.9756H179.948V35.6714H178.693V37.668H179.948V41.8432C179.948 42.7379 180.032 43.4227 180.206 43.9359C180.39 44.4828 180.701 44.8811 181.131 45.1206C181.547 45.3519 182.099 45.4643 182.818 45.4643C183.309 45.4643 184.006 45.3902 184.89 45.2437L185.146 45.2013L184.991 43.3073L183.137 43.4135Z" fill="#76777A"/>
<path d="M189.776 43.2685H189.649L187.513 35.6714H185.181L187.884 45.2657H189.241L188.08 49.2095H190.398L194.264 35.6714H191.931L189.776 43.2685Z" fill="#76777A"/>
<path d="M204.733 4.79102H202.988V49.1076H204.733V4.79102Z" fill="#76777A"/>
</g>
<path d="M213.591 24.7763L223.819 18.394C220.734 21.6904 219.664 26.2138 221.42 32.43L228.421 19.3842C228.421 19.3857 228.413 24.9417 228.38 31.5956C228.349 37.9002 228.191 38.6049 228.191 38.6049L230.205 40.0802L231.902 38.7393C231.874 36.6522 231.643 19.3873 231.643 19.3842L238.644 32.43C240.401 26.2138 239.333 21.6904 236.246 18.394L246.473 24.7763C245.929 18.6494 240.578 13.6306 235.926 12.8769L249 14.0238C244.45 8.89015 237.172 8.36009 234.069 9.5198L242.272 3.0865C237.742 2.59116 232.549 4.2171 230.032 8.12059C227.515 4.2171 222.322 2.59116 217.792 3.0865L225.996 9.5198C222.893 8.36009 215.615 8.89015 211.064 14.0238L224.137 12.8769C219.486 13.6306 214.135 18.6494 213.591 24.7763Z" fill="#4D7F71"/>
<path d="M233.756 49.4646C233.507 49.605 233.262 49.7358 233.021 49.8522C232.78 49.9691 232.544 50.0728 232.315 50.1591C231.995 50.2791 231.685 50.3756 231.384 50.4486C230.782 50.5942 230.216 50.6442 229.69 50.5993C229.427 50.5768 229.174 50.5309 228.932 50.4604C228.643 50.3766 228.277 50.2234 227.85 50.0105C226.565 49.3722 224.71 48.1997 222.628 46.7734C222.281 46.536 221.927 46.2913 221.569 46.0406C220.853 45.5397 220.117 45.0152 219.375 44.4785C217.892 43.4051 216.383 42.2811 214.949 41.1899C214.591 40.9167 214.238 40.646 213.89 40.3784L213.883 40.8641C219.623 45.2751 226.488 50.155 228.817 50.8291C229.211 50.943 229.628 51.0001 230.068 51.0001C230.806 51.0001 231.606 50.8393 232.46 50.5176C232.907 50.3491 233.649 49.9497 234.15 49.6106L233.756 49.4646Z" fill="#B99C16"/>
<path d="M235.869 47.9273C235.93 47.8849 235.999 47.8369 236.074 47.7848C236.373 47.5755 236.769 47.2966 237.164 47.0173C237.362 46.8779 237.559 46.7385 237.744 46.6078C238.298 46.2151 238.742 45.901 238.745 45.901C237.866 45.901 237.064 45.71 236.372 45.4491C236.142 45.3623 235.924 45.2673 235.719 45.1692C235.31 44.9726 234.956 44.7627 234.666 44.5753C234.375 44.3879 234.15 44.222 233.999 44.1147C229.548 40.9471 218.593 32.9226 213.891 29.4746V29.4751V33.6947C214.849 34.428 216.186 35.4422 217.513 36.4242L216.367 37.8688C215.424 37.1708 214.578 36.5442 213.891 36.034V40.3782C214.238 40.6458 214.592 40.917 214.95 41.1897C216.384 42.2815 217.892 43.4054 219.376 44.4788C220.118 45.0155 220.853 45.5395 221.569 46.0409C221.927 46.2912 222.281 46.5358 222.628 46.7737C224.71 48.2 226.565 49.3725 227.849 50.0108C228.278 50.2232 228.643 50.3769 228.932 50.4607C229.174 50.5307 229.427 50.5771 229.69 50.5996C230.216 50.6445 230.782 50.594 231.384 50.4484C231.685 50.3759 231.996 50.2794 232.315 50.1594C232.544 50.0726 232.78 49.9694 233.021 49.8525C233.262 49.7356 233.508 49.6053 233.756 49.4649L233.757 49.4644C232.898 49.1554 232.193 48.8771 231.131 48.2L232.231 46.8105C233.629 47.435 234.557 47.8114 235.563 48.1326C235.565 48.1326 235.579 48.1244 235.604 48.1081C235.654 48.0754 235.746 48.0126 235.869 47.9273ZM226.152 45.04C224.673 43.9733 222.96 42.7221 221.248 41.4664L222.388 40.0172C224.096 41.2703 225.805 42.5179 227.28 43.5821L226.152 45.04Z" fill="#76777A"/>
<path d="M237.729 44.6624C239.688 45.0959 240.794 44.6088 241.565 44.0128L246.73 40.3162V35.6482L243.742 37.9641L242.563 36.5449L246.508 33.4498L246.73 33.2757V28.6226L231.354 40.5245C231.358 40.5332 234.476 42.8174 234.47 42.8153L234.529 42.7694L237.786 40.2467L238.966 41.6658L236.049 43.9291C236.307 44.1119 236.632 44.2743 236.941 44.4014C237.249 44.5286 237.54 44.6205 237.729 44.6624Z" fill="#76777A"/>
<path d="M246.73 40.3169L241.565 44.0131C240.795 44.609 239.688 45.0962 237.73 44.6626C237.54 44.6207 237.249 44.5288 236.941 44.4017C236.633 44.2745 236.307 44.1126 236.049 43.9298L236.08 43.9053L235.73 44.1601C236.297 44.587 237.247 44.9511 237.641 45.0379C238.198 45.161 238.69 45.2126 239.127 45.2126C240.461 45.2126 241.276 44.73 241.803 44.3225L246.73 40.7959V40.3169Z" fill="#B99C16"/>
<path d="M246.729 35.6421L246.535 35.7994L246.729 35.6482V35.6421Z" fill="#B99C16"/>
<path d="M231.354 40.5238L246.73 28.6224V28.1699L230.756 40.5335L231.133 40.8108C231.548 41.1152 233.642 42.639 234.19 43.0373L234.53 42.7692L234.47 42.8151C234.476 42.8167 231.359 40.5325 231.354 40.5238Z" fill="#B99C16"/>
<path d="M246.728 33.2764L246.508 33.4505L246.728 33.283V33.2764Z" fill="#B99C16"/>
<path d="M238.845 45.5675C236.687 45.5537 234.87 44.2581 234.235 43.8047C229.988 40.7816 219.816 33.3372 214.132 29.1681L213.883 28.9858L213.89 29.4751C218.592 32.923 229.548 40.947 233.998 44.1147C234.15 44.2224 234.375 44.3879 234.665 44.5753C234.956 44.7632 235.31 44.9726 235.719 45.1692C235.923 45.2672 236.142 45.3622 236.372 45.4495C237.063 45.7105 237.865 45.9009 238.744 45.9009C238.741 45.9009 238.298 46.215 237.743 46.6077C237.559 46.7384 237.361 46.8778 237.164 47.0178C236.769 47.2966 236.373 47.5759 236.074 47.7848C235.999 47.8374 235.93 47.8849 235.868 47.9278C235.746 48.0125 235.654 48.0753 235.604 48.108C235.579 48.1244 235.564 48.133 235.562 48.133L236.031 48.298C236.435 48.0064 239.952 45.5746 239.952 45.5746L238.845 45.5675Z" fill="#B99C16"/>
</svg>
